<?xml version="1.0" encoding="UTF-8" standalone="no"?>
<!DOCTYPE svg PUBLIC "-//W3C//DTD SVG 1.1//EN"
 "http://www.w3.org/Graphics/SVG/1.1/DTD/svg11.dtd">
<!-- Generated by graphviz version 2.43.0 (0)
 -->
<!-- Title: %3 Pages: 1 -->
<svg width="531pt" height="476pt"
 viewBox="0.00 0.00 531.00 476.00" xmlns="http://www.w3.org/2000/svg" xmlns:xlink="http://www.w3.org/1999/xlink">
<g id="graph0" class="graph" transform="scale(1 1) rotate(0) translate(4 472)">
<title>%3</title>
<polygon fill="white" stroke="transparent" points="-4,4 -4,-472 527,-472 527,4 -4,4"/>
<!-- 3401303042781063067 -->
<g id="node1" class="node">
<title>3401303042781063067</title>
<polygon fill="none" stroke="black" points="254.5,-36 92.5,-36 92.5,0 254.5,0 254.5,-36"/>
<text text-anchor="middle" x="173.5" y="-13" font-family="Helvetica,sans-Serif" font-size="20.00">Std(Projection)</text>
</g>
<!-- 7615799778606517285 -->
<g id="node2" class="node">
<title>7615799778606517285</title>
<polygon fill="none" stroke="black" points="343.5,-108 3.5,-108 3.5,-72 343.5,-72 343.5,-108"/>
<text text-anchor="middle" x="173.5" y="-85" font-family="Helvetica,sans-Serif" font-size="20.00">Projection(Filter, [&#39;name&#39;, &#39;x&#39;, &#39;y&#39;])</text>
</g>
<!-- 7615799778606517285&#45;&gt;3401303042781063067 -->
<g id="edge1" class="edge">
<title>7615799778606517285&#45;&gt;3401303042781063067</title>
<path fill="none" stroke="black" d="M173.5,-71.7C173.5,-63.98 173.5,-54.71 173.5,-46.11"/>
<polygon fill="black" stroke="black" points="177,-46.1 173.5,-36.1 170,-46.1 177,-46.1"/>
</g>
<!-- &#45;2279324438743023783 -->
<g id="node3" class="node">
<title>&#45;2279324438743023783</title>
<polygon fill="none" stroke="black" points="347,-180 0,-180 0,-144 347,-144 347,-180"/>
<text text-anchor="middle" x="173.5" y="-157" font-family="Helvetica,sans-Serif" font-size="20.00">Filter(ArrowStringConversion, GT)</text>
</g>
<!-- &#45;2279324438743023783&#45;&gt;7615799778606517285 -->
<g id="edge2" class="edge">
<title>&#45;2279324438743023783&#45;&gt;7615799778606517285</title>
<path fill="none" stroke="black" d="M173.5,-143.7C173.5,-135.98 173.5,-126.71 173.5,-118.11"/>
<polygon fill="black" stroke="black" points="177,-118.1 173.5,-108.1 170,-118.1 177,-118.1"/>
</g>
<!-- 4982895659396484257 -->
<g id="node4" class="node">
<title>4982895659396484257</title>
<polygon fill="none" stroke="black" points="373,-252 192,-252 192,-216 373,-216 373,-252"/>
<text text-anchor="middle" x="282.5" y="-229" font-family="Helvetica,sans-Serif" font-size="20.00">GT(Projection, 0)</text>
</g>
<!-- 4982895659396484257&#45;&gt;&#45;2279324438743023783 -->
<g id="edge4" class="edge">
<title>4982895659396484257&#45;&gt;&#45;2279324438743023783</title>
<path fill="none" stroke="black" d="M255.84,-215.88C241.72,-206.81 224.19,-195.55 208.94,-185.76"/>
<polygon fill="black" stroke="black" points="210.57,-182.65 200.27,-180.19 206.79,-188.54 210.57,-182.65"/>
</g>
<!-- 2305896126245089123 -->
<g id="node5" class="node">
<title>2305896126245089123</title>
<polygon fill="none" stroke="black" points="523,-324 142,-324 142,-288 523,-288 523,-324"/>
<text text-anchor="middle" x="332.5" y="-301" font-family="Helvetica,sans-Serif" font-size="20.00">Projection(ArrowStringConversion, x)</text>
</g>
<!-- 2305896126245089123&#45;&gt;4982895659396484257 -->
<g id="edge5" class="edge">
<title>2305896126245089123&#45;&gt;4982895659396484257</title>
<path fill="none" stroke="black" d="M320.14,-287.7C314.27,-279.47 307.13,-269.48 300.66,-260.42"/>
<polygon fill="black" stroke="black" points="303.38,-258.21 294.72,-252.1 297.68,-262.28 303.38,-258.21"/>
</g>
<!-- 9218957542272702361 -->
<g id="node6" class="node">
<title>9218957542272702361</title>
<polygon fill="none" stroke="black" points="406.5,-396 40.5,-396 40.5,-360 406.5,-360 406.5,-396"/>
<text text-anchor="middle" x="223.5" y="-373" font-family="Helvetica,sans-Serif" font-size="20.00">ArrowStringConversion(Timeseries)</text>
</g>
<!-- 9218957542272702361&#45;&gt;&#45;2279324438743023783 -->
<g id="edge3" class="edge">
<title>9218957542272702361&#45;&gt;&#45;2279324438743023783</title>
<path fill="none" stroke="black" d="M174.94,-359.97C158.83,-351.73 142.68,-340.06 133.5,-324 108.68,-280.57 135.94,-221.97 156.05,-188.77"/>
<polygon fill="black" stroke="black" points="159.13,-190.44 161.48,-180.11 153.2,-186.72 159.13,-190.44"/>
</g>
<!-- 9218957542272702361&#45;&gt;2305896126245089123 -->
<g id="edge6" class="edge">
<title>9218957542272702361&#45;&gt;2305896126245089123</title>
<path fill="none" stroke="black" d="M250.16,-359.88C264.28,-350.81 281.81,-339.55 297.06,-329.76"/>
<polygon fill="black" stroke="black" points="299.21,-332.54 305.73,-324.19 295.43,-326.65 299.21,-332.54"/>
</g>
<!-- &#45;6732648608523306801 -->
<g id="node7" class="node">
<title>&#45;6732648608523306801</title>
<polygon fill="none" stroke="black" points="285,-468 162,-468 162,-432 285,-432 285,-468"/>
<text text-anchor="middle" x="223.5" y="-445" font-family="Helvetica,sans-Serif" font-size="20.00">Timeseries</text>
</g>
<!-- &#45;6732648608523306801&#45;&gt;9218957542272702361 -->
<g id="edge7" class="edge">
<title>&#45;6732648608523306801&#45;&gt;9218957542272702361</title>
<path fill="none" stroke="black" d="M223.5,-431.7C223.5,-423.98 223.5,-414.71 223.5,-406.11"/>
<polygon fill="black" stroke="black" points="227,-406.1 223.5,-396.1 220,-406.1 227,-406.1"/>
</g>
</g>
</svg>
