<?xml version="1.0" encoding="UTF-8" standalone="no"?>
<!DOCTYPE svg PUBLIC "-//W3C//DTD SVG 1.1//EN"
 "http://www.w3.org/Graphics/SVG/1.1/DTD/svg11.dtd">
<!-- Generated by graphviz version 2.43.0 (0)
 -->
<!-- Title: %3 Pages: 1 -->
<svg width="288pt" height="188pt"
 viewBox="0.00 0.00 288.00 188.00" xmlns="http://www.w3.org/2000/svg" xmlns:xlink="http://www.w3.org/1999/xlink">
<g id="graph0" class="graph" transform="scale(1 1) rotate(0) translate(4 184)">
<title>%3</title>
<polygon fill="white" stroke="transparent" points="-4,4 -4,-184 284,-184 284,4 -4,4"/>
<!-- &#45;6466107911657025936 -->
<g id="node1" class="node">
<title>&#45;6466107911657025936</title>
<polygon fill="none" stroke="black" points="280,-36 0,-36 0,0 280,0 280,-36"/>
<text text-anchor="middle" x="140" y="-13" font-family="Helvetica,sans-Serif" font-size="20.00">MapPartitions(TreeReduce)</text>
</g>
<!-- &#45;7440925570650482339 -->
<g id="node2" class="node">
<title>&#45;7440925570650482339</title>
<polygon fill="none" stroke="black" points="242,-108 38,-108 38,-72 242,-72 242,-108"/>
<text text-anchor="middle" x="140" y="-85" font-family="Helvetica,sans-Serif" font-size="20.00">TreeReduce(Fused)</text>
</g>
<!-- &#45;7440925570650482339&#45;&gt;&#45;6466107911657025936 -->
<g id="edge1" class="edge">
<title>&#45;7440925570650482339&#45;&gt;&#45;6466107911657025936</title>
<path fill="none" stroke="black" d="M140,-71.7C140,-63.98 140,-54.71 140,-46.11"/>
<polygon fill="black" stroke="black" points="143.5,-46.1 140,-36.1 136.5,-46.1 143.5,-46.1"/>
</g>
<!-- 6748803957807962359 -->
<g id="node3" class="node">
<title>6748803957807962359</title>
<polygon fill="none" stroke="black" points="177.5,-180 102.5,-180 102.5,-144 177.5,-144 177.5,-180"/>
<text text-anchor="middle" x="140" y="-157" font-family="Helvetica,sans-Serif" font-size="20.00">Fused</text>
</g>
<!-- 6748803957807962359&#45;&gt;&#45;7440925570650482339 -->
<g id="edge2" class="edge">
<title>6748803957807962359&#45;&gt;&#45;7440925570650482339</title>
<path fill="none" stroke="black" d="M140,-143.7C140,-135.98 140,-126.71 140,-118.11"/>
<polygon fill="black" stroke="black" points="143.5,-118.1 140,-108.1 136.5,-118.1 143.5,-118.1"/>
</g>
</g>
</svg>
